<svg width="30" height="30" viewBox="0 0 30 30" fill="none" xmlns="http://www.w3.org/2000/svg">
<g clip-path="url(#clip0_151_1271)">
<path d="M22.955 21.7049L15 29.6599L7.04501 21.7049C5.47168 20.1316 4.40023 18.127 3.96616 15.9447C3.53209 13.7624 3.75488 11.5004 4.60637 9.44478C5.45786 7.38912 6.8998 5.63212 8.74985 4.39596C10.5999 3.1598 12.775 2.5 15 2.5C17.225 2.5 19.4001 3.1598 21.2502 4.39596C23.1002 5.63212 24.5421 7.38912 25.3936 9.44478C26.2451 11.5004 26.4679 13.7624 26.0338 15.9447C25.5998 18.127 24.5283 20.1316 22.955 21.7049ZM15 16.2499C15.663 16.2499 16.2989 15.9865 16.7678 15.5177C17.2366 15.0488 17.5 14.4129 17.5 13.7499C17.5 13.0869 17.2366 12.451 16.7678 11.9821C16.2989 11.5133 15.663 11.2499 15 11.2499C14.337 11.2499 13.7011 11.5133 13.2322 11.9821C12.7634 12.451 12.5 13.0869 12.5 13.7499C12.5 14.4129 12.7634 15.0488 13.2322 15.5177C13.7011 15.9865 14.337 16.2499 15 16.2499Z" fill="#202020"/>
</g>
<defs>
<clipPath id="clip0_151_1271">
<rect width="30" height="30" fill="white"/>
</clipPath>
</defs>
</svg>
