<svg width="30" height="30" viewBox="0 0 30 30" fill="none" xmlns="http://www.w3.org/2000/svg">
<path d="M26.1429 20.4724V24.8503C26.143 25.1637 26.0243 25.4656 25.8106 25.6949C25.5969 25.9242 25.3042 26.064 24.9915 26.0859C24.4504 26.1231 24.0084 26.1429 23.6667 26.1429C12.7257 26.1429 3.85718 17.2744 3.85718 6.33334C3.85718 5.99162 3.87575 5.54962 3.91413 5.00858C3.93607 4.69589 4.0758 4.40316 4.30512 4.18946C4.53445 3.97577 4.83629 3.85701 5.14975 3.85715H9.52765C9.68123 3.85699 9.82937 3.91393 9.94332 4.01689C10.0573 4.11985 10.1289 4.26149 10.1442 4.41429C10.1727 4.69905 10.1987 4.92562 10.2235 5.09772C10.4695 6.81486 10.9738 8.48494 11.7191 10.0513C11.8367 10.299 11.7599 10.5949 11.5371 10.7533L8.86527 12.6625C10.4989 16.4689 13.5323 19.5024 17.3388 21.136L19.2455 18.4691C19.3234 18.3602 19.4371 18.282 19.5667 18.2483C19.6964 18.2146 19.8338 18.2275 19.9549 18.2847C21.5211 19.0286 23.1908 19.5316 24.9073 19.7766C25.0794 19.8013 25.3059 19.8286 25.5882 19.8558C25.7408 19.8715 25.8821 19.9432 25.9848 20.0571C26.0876 20.171 26.1443 20.319 26.1441 20.4724H26.1429Z" fill="#F9F9F9"/>
</svg>
