<svg width="186" height="34" viewBox="0 0 186 34" fill="none" xmlns="http://www.w3.org/2000/svg">
<path d="M16.1221 1.60979C16.5011 0.914846 17.4989 0.914845 17.8779 1.60979L22.0687 9.29401C22.2125 9.55774 22.4673 9.74284 22.7625 9.79813L31.3657 11.4092C32.1437 11.5549 32.4521 12.5039 31.9083 13.0791L25.8951 19.4393C25.6888 19.6576 25.5914 19.9571 25.6301 20.255L26.7564 28.9349C26.8583 29.7199 26.051 30.3064 25.3359 29.967L17.4288 26.2136C17.1575 26.0847 16.8425 26.0847 16.5712 26.2136L8.66412 29.967C7.94902 30.3064 7.14174 29.7199 7.2436 28.9349L8.3699 20.255C8.40855 19.9571 8.31124 19.6576 8.10487 19.4393L2.09174 13.0791C1.54793 12.5039 1.85629 11.5549 2.63433 11.4092L11.2375 9.79813C11.5327 9.74284 11.7875 9.55774 11.9313 9.29401L16.1221 1.60979Z" fill="#FBBC05"/>
<path d="M54.1221 1.60979C54.5011 0.914846 55.4989 0.914845 55.8779 1.60979L60.0687 9.29401C60.2125 9.55774 60.4673 9.74284 60.7625 9.79813L69.3657 11.4092C70.1437 11.5549 70.4521 12.5039 69.9083 13.0791L63.8951 19.4393C63.6888 19.6576 63.5914 19.9571 63.6301 20.255L64.7564 28.9349C64.8583 29.7199 64.051 30.3064 63.3359 29.967L55.4288 26.2136C55.1575 26.0847 54.8425 26.0847 54.5712 26.2136L46.6641 29.967C45.949 30.3064 45.1417 29.7199 45.2436 28.9349L46.3699 20.255C46.4086 19.9571 46.3112 19.6576 46.1049 19.4393L40.0917 13.0791C39.5479 12.5039 39.8563 11.5549 40.6343 11.4092L49.2375 9.79813C49.5327 9.74284 49.7875 9.55774 49.9313 9.29401L54.1221 1.60979Z" fill="#FBBC05"/>
<path d="M92.1221 1.60979C92.5011 0.914846 93.4989 0.914845 93.8779 1.60979L98.0687 9.29401C98.2125 9.55774 98.4673 9.74284 98.7625 9.79813L107.366 11.4092C108.144 11.5549 108.452 12.5039 107.908 13.0791L101.895 19.4393C101.689 19.6576 101.591 19.9571 101.63 20.255L102.756 28.9349C102.858 29.7199 102.051 30.3064 101.336 29.967L93.4288 26.2136C93.1575 26.0847 92.8425 26.0847 92.5712 26.2136L84.6641 29.967C83.949 30.3064 83.1417 29.7199 83.2436 28.9349L84.3699 20.255C84.4086 19.9571 84.3112 19.6576 84.1049 19.4393L78.0917 13.0791C77.5479 12.5039 77.8563 11.5549 78.6343 11.4092L87.2375 9.79813C87.5327 9.74284 87.7875 9.55774 87.9313 9.29401L92.1221 1.60979Z" fill="#FBBC05"/>
<path d="M130.122 1.60979C130.501 0.914846 131.499 0.914845 131.878 1.60979L136.069 9.29401C136.212 9.55774 136.467 9.74284 136.763 9.79813L145.366 11.4092C146.144 11.5549 146.452 12.5039 145.908 13.0791L139.895 19.4393C139.689 19.6576 139.591 19.9571 139.63 20.255L140.756 28.9349C140.858 29.7199 140.051 30.3064 139.336 29.967L131.429 26.2136C131.157 26.0847 130.843 26.0847 130.571 26.2136L122.664 29.967C121.949 30.3064 121.142 29.7199 121.244 28.9349L122.37 20.255C122.409 19.9571 122.311 19.6576 122.105 19.4393L116.092 13.0791C115.548 12.5039 115.856 11.5549 116.634 11.4092L125.237 9.79813C125.533 9.74284 125.788 9.55774 125.931 9.29401L130.122 1.60979Z" fill="#FBBC05"/>
<path d="M168.122 1.60979C168.501 0.914846 169.499 0.914845 169.878 1.60979L174.069 9.29401C174.212 9.55774 174.467 9.74284 174.763 9.79813L183.366 11.4092C184.144 11.5549 184.452 12.5039 183.908 13.0791L177.895 19.4393C177.689 19.6576 177.591 19.9571 177.63 20.255L178.756 28.9349C178.858 29.7199 178.051 30.3064 177.336 29.967L169.429 26.2136C169.157 26.0847 168.843 26.0847 168.571 26.2136L160.664 29.967C159.949 30.3064 159.142 29.7199 159.244 28.9349L160.37 20.255C160.409 19.9571 160.311 19.6576 160.105 19.4393L154.092 13.0791C153.548 12.5039 153.856 11.5549 154.634 11.4092L163.237 9.79813C163.533 9.74284 163.788 9.55774 163.931 9.29401L168.122 1.60979Z" fill="#7D7D7D"/>
</svg>
